<svg version="1.1" xmlns="http://www.w3.org/2000/svg" x="0" y="0" viewBox="0 0 371.2 52.4" xml:space="preserve"><g fill="#000"><path d="M52.4 28.5c0 7.1-4 10.6-10.2 10.6-6.1 0-10.1-3.5-10.1-10.4V15.1h4.2v13.4c0 4.4 2.3 6.8 6 6.8s5.9-2.2 5.9-6.6V15.1h4.2v13.4zM79.2 38.8h-4.4l-2.4-5.7H61.2l-2.4 5.7h-4.3L64.9 15h3.8l10.5 23.8zM66.8 19.9l-4.1 9.5h8.1l-4-9.5zM99.7 15.1h4.1v23.6h-3.5L87.3 22v16.8h-4.1V15.1H87l12.7 16.3V15.1zM119.9 38.8h-4.2V19h-7.5v-3.8h19.2V19h-7.5v19.8zM136.1 15.1v23.6H132V15.1h4.1zM160 18.9h-13.4v6.4h11.9v3.8h-11.9v9.6h-4.2V15.1H160v3.8zM169 15.1v23.6h-4.2V15.1h4.2zM192.8 18.8h-13.4V25h11.8v3.7h-11.8V35H193v3.7h-17.7V15.1h17.5v3.7zM206.7 38.8h-8.8V15.1h8.8c7.4 0 12.6 5.1 12.6 11.8 0 6.7-5.2 11.9-12.6 11.9zm0-19.9H202V35h4.7c5 0 8.2-3.3 8.2-8s-3.2-8.1-8.2-8.1zM243.2 31.2h-4.7v7.6h-4.2V15.1h9.3c5.5 0 9 3.1 9 7.9.1 5.4-4.2 8.2-9.4 8.2zm.2-12.3h-4.8v8.5h4.8c3.1 0 5.1-1.7 5.1-4.3 0-2.7-2-4.2-5.1-4.2zM256.9 15.1h4.2V35h12.4v3.8h-16.6V15.1zM300.4 38.8H296l-2.4-5.7h-11.2l-2.4 5.7h-4.3L286.2 15h3.8l10.4 23.8zm-12.3-18.9l-4.1 9.5h8.1l-4-9.5zM321 15.1h4.1v23.6h-3.5l-13-16.8v16.8h-4.1V15.1h3.8L321 31.5V15.1zM348.7 18.8h-13.4V25h11.8v3.7h-11.8V35h13.5v3.7h-17.7V15.1h17.5v3.7zM363.8 38.8h-4.2V19h-7.5v-3.8h19.2V19h-7.5v19.8z"/></g><path stroke="#000" stroke-width=".1" stroke-miterlimit="10" d="M13.2 39.3C5.9 39.3 0 33.5 0 26.2s5.9-13.1 13.1-13.1S26.3 19 26.3 26.2s-5.9 13.1-13.1 13.1zm9.1-13.1c0-5.1-4.1-9.2-9.2-9.2s-9.2 4.1-9.2 9.2 4.1 9.2 9.2 9.2 9.2-4.1 9.2-9.2z"/><path d="M11.2 0h4v52.4h-4z"/><path d="M11.727 26.446l2.828-2.83 14.57 14.565-2.83 2.83z"/></svg>