<svg xmlns="http://www.w3.org/2000/svg" version="1.1" id="qplogo" x="0" y="0" width="370" height="50" viewBox="0 0 370 50" enable-background="new 0 0 370 50" xml:space="preserve"><path id="symbol" d="M24.4 39.4l1.9-1.9 -4.2-4.2c3.9-4.9 3.6-12.1-0.9-16.6 -2-2-4.6-3.3-7.5-3.6V0h-2.7v13.2c-2.8 0.3-5.4 1.5-7.5 3.6C1.3 19.1 0 22.2 0 25.5c0 3.3 1.3 6.4 3.6 8.8 2 2 4.6 3.3 7.5 3.6v13.2h2.7V37.9c2.4-0.3 4.6-1.2 6.5-2.7L24.4 39.4zM19.4 18.6c3.5 3.5 3.8 9 0.9 12.8L13.8 25v-9.1C15.9 16.1 17.8 17.1 19.4 18.6zM5.5 32.4c-1.8-1.8-2.9-4.3-2.9-6.9 0-2.6 1-5.1 2.9-6.9 1.5-1.5 3.5-2.5 5.6-2.8v19.4C9 34.9 7.1 34 5.5 32.4zM13.8 35.2v-6.5l4.6 4.6C17 34.3 15.4 35 13.8 35.2z"/><g id="word1"><path d="M51.6 27.9c0 7.1-4 10.6-10.2 10.6 -6.1 0-10.1-3.5-10.1-10.4V14.5h4.2v13.4c0 4.4 2.3 6.8 6 6.8 3.7 0 5.9-2.2 5.9-6.6V14.5h4.2V27.9zM78.4 38.1h-4.4l-2.4-5.7H60.5l-2.4 5.7h-4.3l10.4-23.8H68L78.4 38.1zM66.1 19.2L62 28.7h8.1L66.1 19.2zM99 14.5h4.1v23.6h-3.5l-13-16.8v16.8h-4.1V14.5h3.8L99 30.8V14.5zM119.1 38.1h-4.2V18.3h-7.5v-3.8h19.2v3.8h-7.5V38.1zM135.4 14.5v23.6h-4.2V14.5H135.4zM159.3 18.2h-13.4v6.4h11.9v3.8h-11.9v9.6h-4.2V14.5h17.6V18.2zM168.2 14.5v23.6h-4.2V14.5H168.2zM192.1 18.2h-13.4v6.1h11.8V28h-11.8v6.3h13.5v3.7h-17.7V14.5h17.5V18.2zM206 38.1h-8.8V14.5h8.8c7.4 0 12.6 5.1 12.6 11.8C218.5 32.9 213.4 38.1 206 38.1zM206 18.2h-4.7v16.1h4.7c5 0 8.2-3.3 8.2-8C214.2 21.6 210.9 18.2 206 18.2z"/></g><g id="word2"><path d="M242.5 30.5h-4.7v7.6h-4.2V14.5h9.3c5.5 0 9 3.1 9 7.9C252 27.7 247.7 30.5 242.5 30.5zM242.6 18.2h-4.8v8.5h4.8c3.1 0 5.1-1.7 5.1-4.3C247.7 19.7 245.7 18.2 242.6 18.2zM256.2 14.5h4.2v19.8h12.4v3.8h-16.6V14.5zM299.7 38.1h-4.4l-2.4-5.7h-11.2l-2.4 5.7h-4.3l10.4-23.8h3.8L299.7 38.1zM287.3 19.2l-4 9.5h8.1L287.3 19.2zM320.3 14.5h4.1v23.6h-3.5l-13-16.8v16.8h-4.1V14.5h3.8l12.7 16.3V14.5zM347.9 18.2h-13.4v6.1h11.8V28h-11.8v6.3h13.5v3.7h-17.7V14.5h17.5V18.2zM363 38.1h-4.2V18.3h-7.5v-3.8h19.2v3.8H363V38.1z"/></g></svg>
